inDegrees=yes
name=ik_Xsens_quaternion
DataType=double
version=3
OpenSimVersion=4.4-2022-07-23-0e9fedc
endheader
time	pelvis_tilt	pelvis_list	pelvis_rotation	pelvis_tx	pelvis_ty	pelvis_tz	hip_flexion_r	hip_adduction_r	hip_rotation_r	knee_angle_r	knee_angle_r_beta	ankle_angle_r	subtalar_angle_r	mtp_angle_r	hip_flexion_l	hip_adduction_l	hip_rotation_l	knee_angle_l	knee_angle_l_beta	ankle_angle_l	subtalar_angle_l	mtp_angle_l	lumbar_extension	lumbar_bending	lumbar_rotation	arm_flex_r	arm_add_r	arm_rot_r	elbow_flex_r	pro_sup_r	wrist_flex_r	wrist_dev_r	arm_flex_l	arm_add_l	arm_rot_l	elbow_flex_l	pro_sup_l	wrist_flex_l	wrist_dev_l
0	0	0	0	0	0.93	0	0	0	0	0	0	0	0	0	0	0	0	0	0	0	0	0	0	0	0	0	0	0	0	0	0	0	42.70793334234583	-89.92308870765932	-47.29443444875221	0.2650536834446365	16.06733016482786	0	0
0.01666666666666667	0	0	0	0	0.93	0	0	0	0	0	0	0	0	0	0	0	0	0	0	0	0	0	0	0	0	0	0	0	0	0	0	0	42.70544526834883	-89.83552354821913	-47.30203705540115	0.2746869066619735	16.07811834023296	0	0
0.03333333333333333	0	0	0	0	0.93	0	0	0	0	0	-3.412630347362539e-41	0	0	0	0	0	0	0	-3.412630347362539e-41	0	0	0	0	0	0	0	0	0	0	0	0	0	42.74000589118739	-89.82104480402046	-47.33947814664408	0.287248943533504	16.09101882588251	0	0
0.05	6.804364255763423e-13	1.114584735747429e-11	-8.081616894230844e-12	0	0.93	0	1.53886419335673e-28	-1.017902370976468e-28	0	1.277364163936475e-16	2.229421040300528e-18	-1.017902370976464e-28	0	0	1.53886419335673e-28	-1.017902370976468e-28	0	1.277364163936475e-16	2.229421040300528e-18	-1.017902370976464e-28	0	0	6.804364255763395e-13	1.114584735747425e-11	-8.08161689423081e-12	0	-2.544755974895552e-29	0	1.277363895925735e-16	1.277364419695073e-16	0	0	42.76382177498044	-89.86984244237519	-47.36498795361673	0.3054138203629077	16.09903560768876	0	0
0.06666666666666667	0	0	0	0	0.93	0	0	0	0	0	5.877471754111438e-39	0	0	0	0	0	0	0	5.877471754111438e-39	0	0	0	0	0	0	0	0	0	0	0	0	0	42.76638451860406	-89.9470201711199	-47.40527545444711	0.3124126743731164	16.14988542232679	0	0
0.08333333333333333	0	0	0	0	0.93	0	0	0	0	0	0	0	0	0	0	0	0	0	0	0	0	0	0	0	0	0	0	0	0	0	0	0	42.77204252411845	-90.03876149138488	-47.41527425262188	0.2963125075937068	16.17169973917293	0	0
0.1	-1.873174327062194e-23	-2.215693461314493e-18	-4.302338238181002e-24	-1.566329315710905e-18	0.93	5.791586804974643e-20	-4.173641033148786e-27	-5.175180673179947e-15	0	0	-1.895927950592599e-18	-1.072590043659847e-14	-4.822742608146866e-20	1.50566002668733e-15	6.691359506331697e-15	2.52102767005921e-26	4.952888422104087e-15	0	-1.895918009555898e-18	-1.566988700115966e-15	1.540770805483362e-20	-4.317460439558964e-15	-1.758974935281511e-24	-1.090891571439781e-14	-2.158214740008168e-23	-7.954304243259444e-24	5.336707352697315e-15	-1.140472240224706e-14	0	0	9.79370420270719e-16	3.918040882040342e-17	42.77716565353462	-90.13005903498065	-47.40808212787296	0.2733009751878804	16.2046789084754	-2.460474100072238e-15	-8.45078319968221e-17
0.1166666666666667	0	0	0	0	0.93	0	0	0	0	0	0	0	0	0	0	0	0	0	0	0	0	0	0	0	0	0	0	0	0	0	0	0	42.77899285287764	-90.2397978966508	-47.38281639665129	0.2514558590337245	16.22312944840579	0	0
0.1333333333333333	9.576881665486244e-28	5.593148505402674e-18	-4.924588076711395e-31	3.756444645496298e-20	0.93	2.302710562136131e-20	-4.704403584607944e-46	-2.892064613159407e-19	0	0	-1.303651043782619e-17	6.831822978027123e-17	-7.016413912211299e-19	2.665251567326787e-23	-2.245078264569252e-28	7.595449565313305e-28	4.907505682976596e-18	0	-8.596321968591398e-19	2.326977033673991e-17	1.751712502850707e-17	-1.681531277682663e-20	-4.508634145775879e-17	1.45488631069605e-17	-5.464631592282981e-19	-1.520318736467134e-17	-4.109107159342112e-17	1.066650552057316e-17	0	0	-1.993699861316047e-18	1.315833251815699e-19	42.79202022599583	-90.35035851224586	-47.3296891425742	0.2349357520342667	16.24822572215204	-1.049765618880247e-17	-1.597944401212241e-18
0.15	0	0	0	0	0.93	0	0	0	0	0	0	0	0	0	0	0	0	0	0	0	0	0	0	0	0	0	0	0	0	0	0	0	42.92222806664252	-90.45480101252568	-47.16768145896135	0.2167936913627557	16.31231770449762	0	0
0.1666666666666667	0	0	0	0	0.93	0	0	0	0	0	0	0	0	0	0	0	0	0	0	0	0	0	0	0	0	0	0	0	0	0	0	0	42.98987048000389	-90.55097636999643	-47.06425182030739	0.1982117843629029	16.34157701903428	0	0
0.1833333333333333	0	0	0	0	0.93	0	0	0	0	0	0	0	0	0	0	0	0	0	0	0	0	0	0	0	0	0	0	0	0	0	0	0	42.95237399790905	-90.63974893851885	-47.08024224506514	0.1767687705732855	16.22578751111443	0	0
0.2	-1.427690916021965e-23	-7.539823382916727e-15	1.047735082125733e-23	6.183154296276421e-16	0.93	5.500012408490917e-16	2.715081751100876e-36	-2.218425774274971e-25	-1.140682704499003e-20	3.906046000159937e-07	7.244200792305773e-09	2.134067966252416e-12	4.289033150692885e-11	-2.557854095112768e-15	2.420960355879928e-10	-1.270773675148598e-11	-1.736251322750896e-09	3.906050008259461e-07	6.985807719276232e-09	3.335880597025479e-12	-1.878478273929919e-11	5.199269567671048e-13	-2.823435532607543e-09	-3.80674645956499e-08	-3.822267536071006e-08	1.540796093777465e-11	2.626809199201059e-11	2.067009478911582e-11	3.906052696749899e-07	3.906082144324326e-07	1.148955955864557e-13	-1.924514089395385e-15	42.98791421498868	-90.71421438686414	-47.05054018815289	0.1557089590810959	16.2382227881156	4.936621028690516e-14	-2.138380214708036e-17
0.2166666666666667	0	0	0	0	0.93	0	0	0	0	0	0	0	0	0	0	0	0	0	0	0	0	0	0	0	0	0	0	0	0	0	0	0	43.02568668090107	-90.79453324278633	-47.04406830901531	0.1121832502813083	16.24798918805088	0	0
0.2333333333333333	0	0	0	0	0.93	0	0	0	0	0	0	0	0	0	0	0	0	3.624597506485988e-37	1.468156084941958e-39	0	0	0	0	0	0	0	0	0	0	0	0	0	43.06770075445033	-90.85742082608758	-47.01152791752008	0.1349471847841572	16.25974396198762	0	0
0.25	1.196716977992378e-11	4.053413169030976e-12	-4.149198290726928e-12	-1.260553450298473e-25	0.93	8.228595529889697e-25	-2.92574699599409e-43	-6.447613624876769e-29	-4.968292929085258e-28	0	-1.197657053419057e-16	-9.857469323241663e-19	7.039242961069796e-23	-9.706012997820481e-23	-9.124725408772535e-23	-2.45922594895408e-21	-5.525116148686658e-21	6.744839601852261e-15	1.177159359706324e-16	-1.274870255548285e-18	-3.22366855476863e-22	9.409077585948017e-22	1.196716888283974e-11	4.053415171423383e-12	-4.149195346457857e-12	-1.071516296477929e-19	-1.133707907060105e-18	1.481491412456294e-18	2.025735110999017e-15	6.888807058637543e-15	-7.678593827839824e-25	-4.661706811237736e-23	73.23352395607255	-91.06966613924125	-16.82682564164137	0.3116451964510421	32.42018005320213	1.790294518989298e-25	2.77446121471102e-22
